<svg xmlns="http://www.w3.org/2000/svg" xmlns:xlink="http://www.w3.org/1999/xlink" width="32" height="32" viewBox="0 0 32 32"><defs><path id="giona" d="M1146.044 953.968h-22.133c-3.257 0-5.907-1.847-5.907-5.104v-22.901a3.946 3.946 0 0 1 3.942-3.942h20.112a3.943 3.943 0 0 1 3.94 3.94l.008 1.967c2.166 0 3.978 1.765 3.978 3.932v18.168a3.943 3.943 0 0 1-3.94 3.94zm-2.063-28.007a1.973 1.973 0 0 0-1.971-1.971h-20.064a1.977 1.977 0 0 0-1.973 1.973v19.253c1.046-.935 2.249-1.207 3.938-1.207h18.095a1.977 1.977 0 0 0 1.975-1.975zm4.034 5.9c0-1.084-.928-1.964-2.01-1.964h-.007v17.942a2.159 2.159 0 0 1-2.158 2.158h-20.764a1 1 0 1 1 .16-1.97h20.556a.19.19 0 0 0 .189-.188v-2.404a3.965 3.965 0 0 1-1.975.543h-18.966c-1.051 0-3.067.781-3.067 2.953 0 2.172 1.772 3.068 3.067 3.068h23.004a1.973 1.973 0 0 0 1.971-1.971z"/><path id="gionb" d="M1125 938l3-8 3 8"/><path id="gionc" d="M1130 937h-4"/><path id="giond" d="M1134 930h5l-5 8h5"/></defs><g><g transform="translate(-1118 -922)"><g><use fill="#773bba" xlink:href="#giona"/></g><g><use fill="#fff" fill-opacity="0" stroke="#f613d1" stroke-linecap="round" stroke-linejoin="round" stroke-miterlimit="50" stroke-width="2" xlink:href="#gionb"/></g><g><use fill="#fff" fill-opacity="0" stroke="#f613d1" stroke-linecap="round" stroke-linejoin="round" stroke-miterlimit="50" stroke-width="2" xlink:href="#gionc"/></g><g><use fill="#fff" fill-opacity="0" stroke="#f613d1" stroke-linecap="round" stroke-linejoin="round" stroke-miterlimit="50" stroke-width="2" xlink:href="#giond"/></g></g></g></svg>