<svg xmlns="http://www.w3.org/2000/svg" xmlns:xlink="http://www.w3.org/1999/xlink" width="32" height="32" viewBox="0 0 32 32"><defs><path id="4gs3a" d="M1075 424.428V442.9c0 .825-.656 1.494-1.466 1.494h-6.655a5.61 5.61 0 0 0-4.265 1.942l-.078.086-.035.036a4.943 4.943 0 0 1-.628.57l-.198.142c-.186.127-.38.24-.581.34l-.09.043-.244.107-.073.028a4.059 4.059 0 0 1-.45.142c-.054.016-.16.047-.283.071a4.777 4.777 0 0 1-.954.099l-.299-.004a4.66 4.66 0 0 1-1.004-.174 3.79 3.79 0 0 1-.717-.265l-.109-.051a4.69 4.69 0 0 1-.547-.32c-.073-.052-.155-.107-.236-.17a4.888 4.888 0 0 1-.562-.507l-.136-.15a5.726 5.726 0 0 0-4.3-1.976h-6.624c-.81 0-1.466-.67-1.466-1.495v-18.46c.01-.818.664-1.475 1.466-1.475h1.892v-2.965c0-.546.434-.988.97-.988h4.033c2.836.003 5.565 1.1 7.639 3.072a11.128 11.128 0 0 1 7.639-3.072h4.041a.98.98 0 0 1 .962.996v2.957h1.892c.802 0 1.455.657 1.466 1.475zm-15.03-.542v17.302a11.079 11.079 0 0 1 6.669-2.246h3.064v-17.965h-3.064a9.195 9.195 0 0 0-6.67 2.91zm-11.673 15.056h3.064c2.402.002 4.74.789 6.67 2.246v-17.321a9.194 9.194 0 0 0-6.67-2.89h-3.064zm12.87 6.1a7.533 7.533 0 0 1 5.743-2.617h6.151V424.93h-1.42v15.016a.979.979 0 0 1-.969.989h-4.037a9.206 9.206 0 0 0-6.914 3.163.956.956 0 0 1-1.446 0 9.202 9.202 0 0 0-6.914-3.163h-4.033a.979.979 0 0 1-.97-.989V424.93h-1.42v17.476h6.152c2.2.001 4.295.96 5.758 2.637l.074.083c.106.112.222.215.345.308l.135.099c.108.073.221.14.338.198l.07.035.174.075c.078.03.156.055.236.075.082.024.148.056.225.056.128.026.258.043.388.051h.167c.192-.004.383-.028.57-.071l.159-.04c.1-.024.198-.054.294-.09l.16-.068.054-.027c.125-.061.245-.131.36-.21l.117-.083c.138-.1.268-.213.388-.336z"/><path id="4gs3b" d="M1059 437a7 7 0 1 1 0 14 7 7 0 0 1 0-14z"/><path id="4gs3c" d="M1058.05 440.865a.955.955 0 0 1 1.91 0v2.165h2.17a.97.97 0 1 1 0 1.94h-2.17v2.175a.955.955 0 0 1-1.91 0v-2.175h-2.17a.97.97 0 1 1 0-1.94h2.17z"/></defs><g><g transform="translate(-1043 -419)"><g><use fill="#7e3dd4" xlink:href="#4gs3a"/></g><g><use fill="#f613d1" xlink:href="#4gs3b"/></g><g><use fill="#fff" xlink:href="#4gs3c"/></g></g></g></svg>