<svg xmlns="http://www.w3.org/2000/svg" xmlns:xlink="http://www.w3.org/1999/xlink" width="32" height="32" viewBox="0 0 32 32"><defs><path id="mnx4a" d="M1292 414a5 5 0 0 1 5-5h22a5 5 0 0 1 5 5v22a5 5 0 0 1-5 5h-22a5 5 0 0 1-5-5zm2.02-.02v22.052a3 3 0 0 0 3 3h21.998a3 3 0 0 0 3-3V413.98a3 3 0 0 0-3-3h-21.998a3 3 0 0 0-3 3z"/><path id="mnx4b" d="M1301.386 429.84l1.809 1.77-2.468.685zm10.292-10.602l2.095 2.084-9.255 9.28-2.114-2.063zm-11.472 9.119l-1.277 4.749a.81.81 0 0 0 .213.783.826.826 0 0 0 .79.198l4.747-1.314c.007 0 .01.007.016.007.055 0 .108-.02.149-.062l12.634-12.668c.376-.377.58-.888.577-1.443a2.45 2.45 0 0 0-.752-1.718l-1.207-1.183a2.5 2.5 0 0 0-1.745-.723 2.054 2.054 0 0 0-1.452.588l-12.634 12.671c-.013.012-.008.03-.018.043l-.002.003a.193.193 0 0 0-.039.069z"/></defs><g><g transform="translate(-1292 -409)"><g><use fill="#7e3dd4" xlink:href="#mnx4a"/></g><g><use fill="#f613d1" xlink:href="#mnx4b"/></g></g></g></svg>