<svg xmlns="http://www.w3.org/2000/svg" xmlns:xlink="http://www.w3.org/1999/xlink" width="32" height="32" viewBox="0 0 32 32"><defs><path id="thm0a" d="M1650.005 438.01c0 8.83-7.18 16.011-16.01 16.011-8.83 0-16.01-7.18-16.01-16.01 0-8.83 7.18-16.011 16.01-16.011 8.83 0 16.01 7.18 16.01 16.01zm-30.045 0c0 7.765 6.27 14.035 14.035 14.035 7.764 0 14.034-6.27 14.034-14.034 0-7.764-6.27-14.035-14.034-14.035a14.018 14.018 0 0 0-14.035 14.035z"/><path id="thm0b" d="M1633.986 428.63a1.377 1.377 0 1 0 0 2.755 1.377 1.377 0 0 0 0-2.754zm-2.554 5.376c-.523.025-.976.522-.952 1.045.025.522.523.975 1.045.95h1.497v8.01h-1.59c-.523.025-.976.522-.952 1.045.025.522.523.975 1.045.95h4.989c.527.008 1.012-.47 1.012-.997s-.485-1.005-1.012-.998h-1.497v-9.007c0-.523-.475-.998-.998-.998h-2.587z"/></defs><g><g transform="translate(-1618 -422)"><g><use fill="#773bba" xlink:href="#thm0a"/></g><g><use fill="#f613d1" xlink:href="#thm0b"/></g></g></g></svg>