<svg xmlns="http://www.w3.org/2000/svg" xmlns:xlink="http://www.w3.org/1999/xlink" width="32" height="32" viewBox="0 0 32 32"><defs><path id="mn3ta" d="M1400.028 699.622a4.368 4.368 0 0 1-4.377 4.377h-23.28a4.368 4.368 0 0 1-4.377-4.377v-3.252c0-1.37.636-2.573 1.614-3.374a4.345 4.345 0 0 1-1.614-3.374v-3.252c0-1.37.636-2.573 1.614-3.374a4.345 4.345 0 0 1-1.614-3.374v-3.252a4.368 4.368 0 0 1 4.377-4.377h23.28a4.368 4.368 0 0 1 4.377 4.377v3.252a4.345 4.345 0 0 1-1.615 3.374 4.345 4.345 0 0 1 1.615 3.374v3.252a4.345 4.345 0 0 1-1.615 3.374 4.345 4.345 0 0 1 1.615 3.374zm-30.014 0c0 1.28 1.078 2.357 2.357 2.357h23.274c1.28 0 2.357-1.077 2.357-2.357v-3.252c0-1.28-1.01-2.357-2.29-2.357h-23.34c-1.28 0-2.358 1.077-2.358 2.357zm0-10c0 1.28 1.078 2.357 2.357 2.357h23.274c1.28 0 2.357-1.077 2.357-2.357v-3.252c0-1.28-1.01-2.357-2.29-2.357h-23.34c-1.28 0-2.358 1.077-2.358 2.357zm27.988-13.252c0-1.28-1.01-2.357-2.29-2.357h-23.34c-1.28 0-2.358 1.077-2.358 2.357v3.252c0 1.28 1.078 2.357 2.357 2.357h23.274c1.28 0 2.357-1.077 2.357-2.357zm-13.11 2.636h-10.299c-.538 0-1.01-.471-1.01-1.01a.992.992 0 0 1 1.01-1.01h10.299c.538 0 1.01.471 1.01 1.01s-.472 1.01-1.01 1.01zm-10.299 7.98h10.299c.538 0 1.01.471 1.01 1.01s-.472 1.01-1.01 1.01h-10.299c-.538 0-1.01-.471-1.01-1.01a.992.992 0 0 1 1.01-1.01zm0 10h10.299c.538 0 1.01.471 1.01 1.01s-.472 1.01-1.01 1.01h-10.299c-.538 0-1.01-.471-1.01-1.01a.992.992 0 0 1 1.01-1.01z"/><path id="mn3tb" d="M1393.034 679.006h-1.953c-.538 0-1.01-.471-1.01-1.01s.472-1.01 1.01-1.01h1.953c.539 0 1.01.471 1.01 1.01s-.471 1.01-1.01 1.01zm-1.953 7.98h1.953c.539 0 1.01.471 1.01 1.01s-.471 1.01-1.01 1.01h-1.953c-.538 0-1.01-.471-1.01-1.01s.472-1.01 1.01-1.01zm0 10h1.953c.539 0 1.01.471 1.01 1.01s-.471 1.01-1.01 1.01h-1.953c-.538 0-1.01-.471-1.01-1.01s.472-1.01 1.01-1.01z"/></defs><g><g transform="translate(-1368 -672)"><g><use fill="#773bba" xlink:href="#mn3ta"/></g><g><use fill="#f613d1" xlink:href="#mn3tb"/></g></g></g></svg>