<svg xmlns="http://www.w3.org/2000/svg" xmlns:xlink="http://www.w3.org/1999/xlink" width="32" height="32" viewBox="0 0 32 32"><defs><path id="s6eqa" d="M1299 177c0-1.73 1.045-5 5-5h15c1.729 0 5 1.045 5 5v10c0 1.729-.836 5-4 5h-3v3c0 1.729-1.836 5-5 5h-8.65l-4.725 3.78a.998.998 0 0 1-1.058.12.999.999 0 0 1-.567-.9v-3c-1.73 0-5-1.045-5-5v-10c0-1.73 1.045-5 5-5h2zm21 13c1.959 0 1.999-2.881 2-3.003V177c0-2.823-2.504-2.994-3.006-3H1304c-2.823 0-2.994 2.503-3 3.005V180h11c1.729 0 5 1.045 5 5v5zm-22 8a1 1 0 0 1 1 1v1.919l3.375-2.7c.178-.142.398-.219.625-.219h9c1.959 0 2.999-2.881 3-3.003V185c0-2.823-2.504-2.994-3.006-3H1297c-2.823 0-2.994 2.503-3 3.005V195c0 2.823 2.503 2.994 3.005 3z"/><path id="s6eqb" d="M1298 185h13a1 1 0 0 1 0 2h-13a1 1 0 0 1 0-2zm0 4h9a1 1 0 0 1 0 2h-9a1 1 0 0 1 0-2zm0 4h11a1 1 0 0 1 0 2h-11a1 1 0 0 1 0-2z"/></defs><g><g transform="translate(-1292 -172)"><g><use fill="#7e3dd4" xlink:href="#s6eqa"/></g><g><use fill="#f616d2" xlink:href="#s6eqb"/></g></g></g></svg>