<svg xmlns="http://www.w3.org/2000/svg" xmlns:xlink="http://www.w3.org/1999/xlink" width="32" height="32" viewBox="0 0 32 32"><defs><path id="qpnka" d="M792.918 409h5.361c1.111 0 1.787.133 2.536 1.209l3.185 4.77 11.29.038c.654 0 1.695-.02 1.695 1.464l-.01 2.546h6.032c.619.001 1.133.678.959 1.263l-6.135 18.56c-.62 1.995-2.075 2.14-2.503 2.14L794 441c-.524 0-2 0-2-1.986 0-9.199.003-20.485.022-29.029-.003-.483.407-.935.896-.985zm6.23 12.008l-4.918 18.021 21.37-.01 6.074-18.021c-7.493 0-15.017.023-22.526.01z"/></defs><g><g transform="translate(-792 -409)"><g><use fill="#7e3dd4" xlink:href="#qpnka"/></g></g></g></svg>