<svg xmlns="http://www.w3.org/2000/svg" xmlns:xlink="http://www.w3.org/1999/xlink" width="32" height="31" viewBox="0 0 32 31"><defs><path id="henxa" d="M1623.982 703.041v-5.045h2.854c1.19 0 2.163-.973 2.163-2.16v-4.015h1.082c1.19 0 1.71-.861 1.16-1.914l-2.242-4.273v-1.375c0-5.667-4.366-10.262-10.04-10.262"/><path id="henxb" d="M1623.982 687.024a1.035 1.035 0 1 1 0-2.07 1.035 1.035 0 0 1 0 2.07z"/><path id="henxc" d="M1644.035 703.041v-5.045h-2.855a2.168 2.168 0 0 1-2.162-2.16v-4.015h-1.082c-1.19 0-1.71-.861-1.16-1.914l2.242-4.273v-1.375c0-5.667 4.366-10.262 10.04-10.262"/><path id="henxd" d="M1648 698h-5"/><path id="henxe" d="M1625 698h-5"/><path id="henxf" d="M1644.035 687.024a1.035 1.035 0 1 0 0-2.07 1.035 1.035 0 0 0 0 2.07z"/></defs><g><g transform="translate(-1618 -673)"><g><use fill="#fff" fill-opacity="0" stroke="#773bba" stroke-linecap="round" stroke-linejoin="round" stroke-miterlimit="50" stroke-width="2" xlink:href="#henxa"/></g><g><use fill="#773bba" xlink:href="#henxb"/></g><g><use fill="#fff" fill-opacity="0" stroke="#773bba" stroke-linecap="round" stroke-linejoin="round" stroke-miterlimit="50" stroke-width="2" xlink:href="#henxc"/></g><g><use fill="#fff" fill-opacity="0" stroke="#773bba" stroke-linecap="round" stroke-linejoin="round" stroke-miterlimit="50" stroke-width="2" xlink:href="#henxd"/></g><g><use fill="#fff" fill-opacity="0" stroke="#773bba" stroke-linecap="round" stroke-linejoin="round" stroke-miterlimit="50" stroke-width="2" xlink:href="#henxe"/></g><g><use fill="#773bba" xlink:href="#henxf"/></g></g></g></svg>