<svg xmlns="http://www.w3.org/2000/svg" xmlns:xlink="http://www.w3.org/1999/xlink" width="24" height="32" viewBox="0 0 24 32"><defs><path id="467xa" d="M1057 672h2a1 1 0 0 1 0 2h-2a1 1 0 1 1 0-2zm0-4h4a1 1 0 1 1 0 2h-4a1 1 0 1 1 0-2zm1.88 26h-13.345c-1.397 0-2.534-1.167-2.534-2.602V689l1.98.022v2.13c0 .48.378.868.845.868h11.198v-8.005h7.998V664.87a.857.857 0 0 0-.845-.867l-18.351.022a.857.857 0 0 0-.845.868v24.13L1043 689v-24.398c0-1.435 1.136-2.602 2.534-2.602h18.932c1.398 0 2.535 1.167 2.535 2.602v21.114zm-9.88-18h12a1 1 0 0 1 0 2h-12a1 1 0 0 1 0-2zm0 4h4a1 1 0 1 1 0 2h-4a1 1 0 0 1 0-2zm0 4h4a1 1 0 1 1 0 2h-4a1 1 0 0 1 0-2z"/><path id="467xb" d="M1049 674a1 1 0 0 1-1-1v-4a1 1 0 0 1 1-1h4a1 1 0 0 1 1 1v4a1 1 0 0 1-1 1zm1-4v2h2v-2z"/></defs><g><g transform="translate(-1043 -662)"><g><use fill="#7e3dd4" xlink:href="#467xa"/></g><g><use fill="#f613d1" xlink:href="#467xb"/></g></g></g></svg>