<svg xmlns="http://www.w3.org/2000/svg" xmlns:xlink="http://www.w3.org/1999/xlink" width="32" height="32" viewBox="0 0 32 32"><defs><path id="k6qya" d="M1567.996 175.882c0-1.07-.887-1.941-1.976-1.941h-16.091c-1.09 0-1.976.87-1.976 1.941V180h-1.975v-4.118c0-2.14 1.772-3.882 3.951-3.882h16.09c2.18 0 3.952 1.742 3.952 3.882V179h-1.975zm1.975 20.232c0 2.14-1.772 3.882-3.951 3.882h-3.79l-2.668 3.493a.992.992 0 0 1-.79.389.993.993 0 0 1-.79-.389l-2.668-3.493h-5.385c-2.179 0-3.951-1.741-3.951-3.882V193h1.975v3.114c0 1.07.887 1.94 1.976 1.94h5.88c.31 0 .603.145.79.39l2.173 2.846 2.173-2.847a.993.993 0 0 1 .79-.388h4.285c1.089 0 1.976-.871 1.976-1.941V193h1.975z"/><path id="k6qyb" d="M1550.5 178a8.5 8.5 0 1 1 0 17 8.5 8.5 0 0 1 0-17zm-6.5 8.5a6.5 6.5 0 1 0 13 0 6.5 6.5 0 0 0-13 0z"/><path id="k6qyc" d="M1565.5 178a8.5 8.5 0 1 1 0 17 8.5 8.5 0 0 1 0-17zm-6.5 8.5a6.5 6.5 0 1 0 13 0 6.5 6.5 0 0 0-13 0z"/><path id="k6qyd" d="M1563.636 185.707l1.414 1.414 2.829-2.828a1 1 0 1 1 1.414 1.414l-3.536 3.536a1 1 0 0 1-1.414 0l-2.121-2.122a1 1 0 0 1 1.414-1.414zm-16.374-1.958a1 1 0 0 1 1.414 0l1.298 1.306 1.284-1.284a1 1 0 1 1 1.414 1.414l-1.288 1.289 1.26 1.268a1 1 0 0 1-1.415 1.414l-1.26-1.268-1.264 1.264a1 1 0 0 1-1.414-1.414l1.269-1.269-1.298-1.306a1 1 0 0 1 0-1.414z"/></defs><g><g transform="translate(-1542 -172)"><g><use fill="#7e3dd4" xlink:href="#k6qya"/></g><g><use fill="#7e3dd4" xlink:href="#k6qyb"/></g><g><use fill="#7f49d7" xlink:href="#k6qyc"/></g><g><use fill="#f613d1" xlink:href="#k6qyd"/></g></g></g></svg>