<svg xmlns="http://www.w3.org/2000/svg" xmlns:xlink="http://www.w3.org/1999/xlink" width="32" height="32" viewBox="0 0 32 32"><defs><path id="22xea" d="M899 704h-30a1 1 0 1 1 0-2h2v-.006c0-3.536 2.876-6.99 6.412-6.99h1.176c2.276 0 4.758 1.711 5.412 3.566.716-1.917 3.136-3.565 5.412-3.565h1.176c3.536 0 6.412 3.453 6.412 6.99V702h2a1 1 0 1 1 0 2zm-16-2.006c0-2.433-1.98-4.99-4.412-4.99h-1.176c-2.433 0-4.412 2.557-4.412 4.99V702h10zm12 0c0-2.433-1.98-4.99-4.412-4.99h-1.176c-2.433 0-4.412 2.557-4.412 4.99V702h10zm-5-8.571c-2.757 0-5-2.244-5-5 0-2.757 2.243-5 5-5s5 2.243 5 5c0 2.756-2.243 5-5 5zm0-8c-1.654 0-3 1.345-3 3 0 1.654 1.346 3 3 3s3-1.346 3-3c0-1.655-1.346-3-3-3zm-12 8c-2.757 0-5-2.244-5-5 0-2.757 2.243-5 5-5s5 2.243 5 5c0 2.756-2.243 5-5 5zm0-8c-1.654 0-3 1.345-3 3 0 1.654 1.346 3 3 3s3-1.346 3-3c0-1.655-1.346-3-3-3z"/><path id="22xeb" d="M887.047 672.573l-.518 1.688a657.108 657.108 0 0 0 .822 1.402l1.742.404.007 1.251-1.737.381s-.22.49-.355.723c-.134.233-.449.67-.449.67l.538 1.696-1.088.618-1.219-1.308s-.532.034-.799.032c-.276-.001-.826-.043-.826-.043l-1.204 1.295-1.097-.634.52-1.69s-.304-.452-.441-.688c-.136-.232-.381-.713-.381-.713l-1.743-.402-.009-1.252 1.738-.381s.224-.49.359-.723c.134-.232.445-.67.445-.67l-.539-1.696 1.087-.618 1.222 1.307s.543-.033.815-.032c.27.002.81.042.81.042l1.203-1.293zm-2.188 2.526c-.883-.51-2.002-.222-2.5.64-.499.864-.187 1.977.695 2.486.882.51 2 .222 2.5-.64.498-.864.187-1.977-.695-2.486z"/></defs><g><g transform="translate(-868 -672)"><g><use fill="#773bba" xlink:href="#22xea"/></g><g><use fill="#f613d1" xlink:href="#22xeb"/></g></g></g></svg>