<svg xmlns="http://www.w3.org/2000/svg" xmlns:xlink="http://www.w3.org/1999/xlink" width="28" height="32" viewBox="0 0 28 32"><defs><path id="bhp3a" d="M813.88 694h-13.345c-1.397 0-2.534-1.167-2.534-2.602v-22.796c0-1.435 1.136-2.602 2.534-2.602h15.487v-1.13a.857.857 0 0 0-.845-.867l-18.351.022a.857.857 0 0 0-.845.868v22.26c0 .478.378.867.845.867H798V690h-1.465c-1.397 0-2.535-1.167-2.535-2.602v-22.796c0-1.435 1.137-2.602 2.535-2.602h18.932c1.398 0 2.535 1.167 2.535 2.602V666h1.465c1.398 0 2.535 1.167 2.535 2.602v17.114zm6.142-25.13a.857.857 0 0 0-.845-.867l-18.351.022a.857.857 0 0 0-.845.868v22.26c0 .478.378.867.845.867h11.198v-8.005h7.998zM803 681a1 1 0 0 1 1-1h12a1 1 0 1 1 0 2h-12a1 1 0 0 1-1-1zm1-5h9a1 1 0 1 1 0 2h-9a1 1 0 0 1 0-2zm12-2h-12a1 1 0 0 1 0-2h12a1 1 0 1 1 0 2zm-12 10h4a1 1 0 1 1 0 2h-4a1 1 0 0 1 0-2z"/></defs><g><g transform="translate(-794 -662)"><g><use fill="#7e3dd4" xlink:href="#bhp3a"/></g></g></g></svg>