<svg xmlns="http://www.w3.org/2000/svg" xmlns:xlink="http://www.w3.org/1999/xlink" width="32" height="32" viewBox="0 0 32 32"><defs><path id="6hena" d="M1149.007 700.005h-4.073a1.028 1.028 0 0 1-1.003-1.002c0-.535.468-1.003 1.003-1.003h3.07v-24.022h-28.016V698h13.99c.535 0 1.003.468 1.003 1.003 0 .534-.468 1.002-1.002 1.002h-14.994a1.028 1.028 0 0 1-1.003-1.002V673.03c0-.535.468-1.003 1.003-1.003h30.022c.535 0 1.003.468 1.003 1.003v25.972c0 .534-.468 1.002-1.003 1.002zm-5.765-19.992h-18.672a1.028 1.028 0 0 1-1.003-1.003c0-.535.468-1.003 1.003-1.003h18.672c.534 0 1.002.468 1.002 1.003 0 .535-.468 1.003-1.002 1.003zm0 3.98h-18.672a1.028 1.028 0 0 1-1.003-1.003c0-.535.468-1.003 1.003-1.003h18.672c.534 0 1.002.468 1.002 1.003 0 .534-.468 1.002-1.002 1.002zm-14 6h-4.672a1.028 1.028 0 0 1-1.003-1.003c0-.535.468-1.003 1.003-1.003h4.672c.534 0 1.002.468 1.002 1.003 0 .534-.468 1.002-1.002 1.002zm0 4h-4.672a1.028 1.028 0 0 1-1.003-1.003c0-.535.468-1.003 1.003-1.003h4.672c.534 0 1.002.468 1.002 1.003 0 .534-.468 1.002-1.002 1.002z"/><path id="6henb" d="M1139.468 698.036c-.516 0-1.016-.07-1.488-.202v3.094l.9-.735a1.003 1.003 0 0 1 1.203 0l.903.735v-3.102c-.482.137-.991.21-1.518.21zm-5.499-5.526c0-3.057 2.442-5.526 5.5-5.526a5.52 5.52 0 0 1 5.526 5.526c0 1.746-.806 3.3-2.067 4.313.04.106.063.22.063.337v5.774c0 .4-.2.735-.535.869-.133.134-.334.134-.468.134-.2 0-.468-.067-.601-.2l-1.906-1.538-1.902 1.537c-.335.267-.736.267-1.07.134-.334-.134-.535-.535-.535-.87v-5.84c0-.113.021-.223.06-.326a5.522 5.522 0 0 1-2.065-4.324zm5.513-3.54c-1.918 0-3.507 1.588-3.507 3.506 0 1.918 1.59 3.507 3.507 3.507s3.506-1.59 3.506-3.507c0-1.918-1.589-3.507-3.506-3.507z"/></defs><g><g transform="translate(-1118 -672)"><g><use fill="#773bba" xlink:href="#6hena"/></g><g><use fill="#f613d1" xlink:href="#6henb"/></g></g></g></svg>