<svg xmlns="http://www.w3.org/2000/svg" xmlns:xlink="http://www.w3.org/1999/xlink" width="32" height="32" viewBox="0 0 32 32"><defs><path id="2d4qa" d="M1570 426h-9.586l6.293 6.293a1 1 0 1 1-1.414 1.414l-6.293-6.293V435a1 1 0 1 1-2 0v-7.586l-6.293 6.293a1 1 0 0 1-1.414-1.414l6.293-6.293H1546a4 4 0 0 1-4-4v-12a4 4 0 0 1 4-4h11v-1a1 1 0 1 1 2 0v1h11a4 4 0 0 1 4 4v12a4 4 0 0 1-4 4zm-26-4a2 2 0 0 0 2 2h24a2 2 0 0 0 2-2v-12a2 2 0 0 0-2-2h-24a2 2 0 0 0-2 2z"/><path id="2d4qb" d="M1560.658 412.881h-8.734c-.552 0-.92-.378-.92-.946 0-.569.368-.947.92-.947h8.734c.552 0 .919.378.919.947 0 .568-.367.946-.919.946zm3.416 4.123h-12.15c-.552 0-.92-.379-.92-.946 0-.568.368-.947.92-.947h12.15c.552 0 .919.379.919.947s-.367.946-.919.946zm-5 4h-7.15c-.552 0-.92-.379-.92-.946 0-.568.368-.947.92-.947h7.15c.552 0 .919.379.919.947 0 .567-.367.946-.919.946z"/></defs><g><g transform="translate(-1542 -404)"><g><use fill="#7e3dd4" xlink:href="#2d4qa"/></g><g><use fill="#f613d1" xlink:href="#2d4qb"/></g></g></g></svg>