<svg xmlns="http://www.w3.org/2000/svg" xmlns:xlink="http://www.w3.org/1999/xlink" width="32" height="29" viewBox="0 0 32 29"><defs><path id="kyx8a" d="M1146.014 180.93h-.008v14.064a.979.979 0 0 1-.97.988h-3.402a9.205 9.205 0 0 0-6.913 3.163.956.956 0 0 1-1.446 0 9.202 9.202 0 0 0-6.914-3.163h-3.399a.979.979 0 0 1-.969-.988V180.93h-.005v-1.977h.005v-2.965c0-.546.434-.988.97-.988h3.398c2.835.003 5.564 1.1 7.639 3.072a11.128 11.128 0 0 1 7.638-3.072h3.406a.98.98 0 0 1 .962.996v2.957h.008zm-12.984-1.063a9.194 9.194 0 0 0-6.67-2.89h-2.428v17.013h2.429c2.401.001 4.739.788 6.67 2.245zm11.037-2.89h-2.429a9.195 9.195 0 0 0-6.669 2.91v16.348a11.079 11.079 0 0 1 6.67-2.245h2.428zm4.467 23.047h-6.655c-1.63-.01-3.184 1.088-4.266 2.331l-.077.087-.035.036a4.943 4.943 0 0 1-.628.569l-.198.142c-.186.127-.38.24-.582.34l-.089.044-.244.107-.074.027a4.05 4.05 0 0 1-.45.143c-.054.015-.158.047-.283.07a4.777 4.777 0 0 1-.953.1l-.299-.004a4.661 4.661 0 0 1-1.004-.174 3.783 3.783 0 0 1-.718-.265l-.108-.052a4.69 4.69 0 0 1-.547-.32 4.888 4.888 0 0 1-.799-.676l-.135-.15c-1.092-1.253-2.657-2.362-4.3-2.367h-6.625c-.81 0-1.465-.669-1.465-1.494v-18.09c.01-.818.663-1.475 1.465-1.475h.47l.003 19.082h6.152c2.2.002 4.295 1.351 5.758 3.027l.073.083c.107.112.223.215.345.309l.136.098c.108.074.22.14.337.198l.07.036.175.075c.077.03.156.054.236.075.082.024.148.055.225.055.128.027.258.044.388.052h.167c.191-.005.382-.029.57-.071l.158-.04c.1-.025.199-.055.295-.09l.16-.068.054-.028c.125-.06.245-.13.36-.21l.116-.082c.139-.1.269-.213.388-.336l.066-.056c1.453-1.677 3.548-3.022 5.743-3.007h6.15v-14.843h.01v-4.259h.464c.802 0 1.455.657 1.466 1.475v18.101c0 .826-.657 1.495-1.466 1.495z"/></defs><g><g transform="translate(-1118 -175)"><g><use fill="#7e3dd4" xlink:href="#kyx8a"/></g></g></g></svg>