<svg xmlns="http://www.w3.org/2000/svg" xmlns:xlink="http://www.w3.org/1999/xlink" width="31" height="32" viewBox="0 0 31 32"><defs><path id="6os2a" d="M1392 172h6a1 1 0 0 1 1 1v6a1 1 0 0 1-2 0v-3.607l-6.277 6.277a1 1 0 0 1-1.414-1.414l6.255-6.256H1392a1 1 0 0 1 0-2z"/><path id="6os2b" d="M1393.929 203.995h-12.853c-1.144 0-2.071-.895-2.071-1.999v-25.98c0-1.103.927-1.998 2.07-1.998h6.835c.031-.003.058-.018.09-.018a1 1 0 1 1 0 2v.017h-7.011v5.996h5.996v1.999h-5.996v3.995h5.996v1.999h-5.996V194h5.996V196h-5.996v5.996h13.027V183.08c-.003-.028-.016-.051-.016-.079a1 1 0 1 1 2 0v18.996c0 1.104-.927 1.999-2.071 1.999zm-21.92 0c-2.213 0-4.008-1.732-4.008-3.868v-19.42c-.001-.21.033-.42.1-.62l2.005-4.8a1.97 1.97 0 0 1 1.278-1.234c1.051-.333 2.184.219 2.53 1.233l2.003 4.802c.068.2.102.408.1.619v19.42c0 2.136-1.794 3.868-4.007 3.868zm2.005-23.288l-2.004-4.802-2.005 4.802v15.292h4.009zm0 17.269h-4.009v2.151c0 1.068.898 1.934 2.005 1.934 1.106 0 2.004-.866 2.004-1.934z"/></defs><g><g transform="translate(-1368 -172)"><g><use fill="#f613d1" xlink:href="#6os2a"/></g><g><use fill="#773bba" xlink:href="#6os2b"/></g></g></g></svg>