<svg xmlns="http://www.w3.org/2000/svg" xmlns:xlink="http://www.w3.org/1999/xlink" width="28" height="30" viewBox="0 0 28 30"><defs><path id="oji8a" d="M897.006 433.54c-.606.902-1.445 1.454-2.384 1.454h-6.46c-.985 0-1.908-.609-2.531-1.671-.35-.6-.594-2.119-.723-3.057v-2.513c.355-2.27 1.65-4.76 3.254-4.76h6.46c.982 0 1.905.609 2.527 1.674.536.91.83 3.05.83 4.303 0 1.408-.37 3.664-.973 4.57zm-5.078-8.55h-3.766c-.54 0-1.359 2.158-1.359 3.98 0 .885.2 2.741.553 3.34.253.43.552.686.806.686h3.766c-.42-.836-.666-2.88-.666-4.026 0-1.15.246-3.144.666-3.98zm3.5.686c-.253-.43-.553-.686-.806-.686-.543 0-1.362 2.158-1.362 3.98 0 1.818.82 4.026 1.362 4.026.54 0 1.358-2.208 1.358-4.027 0-.889-.203-2.694-.552-3.293zm-22.046 15.337h6.76c.986 0 1.908.609 2.531 1.671.444.76.717 2.284.798 3.307v2.036c-.397 2.123-1.67 4.973-3.227 4.973h-6.862c-.982 0-1.904-.61-2.527-1.675-.536-.909-.83-3.101-.83-4.353 0-2.817 1.476-5.96 3.357-5.96zm2.694 9.99h4.066c.54 0 1.359-2.21 1.359-4.031 0-.886-.2-2.676-.553-3.28-.253-.425-.553-.682-.806-.682h-4.066c.42.836.666 2.813.666 3.962s-.246 3.191-.666 4.03zm-3.5-.687c.254.43.553.686.806.686.543 0 1.363-2.209 1.363-4.03 0-1.822-.82-3.962-1.363-3.962-.539 0-1.358 2.14-1.358 3.962 0 .89.203 2.744.553 3.344z"/><path id="oji8b" d="M882.827 429.969h-5.833c-2.972 0-4.063 1.672-4.063 3.413 0 1.742.584 3.617 4.063 3.617h14.316c3.732 0 5.745 2.868 5.745 5.712 0 2.843-1.785 5.3-5.745 5.3h-5.923v-2.007h5.923c2.466 0 3.696-1.552 3.696-3.293 0-1.745-1.164-3.714-3.696-3.714h-14.316c-4.53 0-6.061-2.77-6.061-5.614s2.038-5.412 6.06-5.412h5.834z"/></defs><g><g transform="translate(-870 -423)"><g><use fill="#773bba" xlink:href="#oji8a"/></g><g><use fill="#f72fd6" xlink:href="#oji8b"/></g></g></g></svg>