<svg xmlns="http://www.w3.org/2000/svg" xmlns:xlink="http://www.w3.org/1999/xlink" width="32" height="32" viewBox="0 0 32 32"><defs><path id="56q9a" d="M808.476 198.053a6.664 6.664 0 0 1-3.247-.839 3.812 3.812 0 0 0 .817-1.626c.716.416 1.55.654 2.438.654.542 0 1.062-.088 1.549-.251.205.597.554 1.13 1.005 1.554a6.677 6.677 0 0 1-2.562.508zm-4.165-11.81c.165.615.481 1.169.907 1.62a4.8 4.8 0 0 0-1.57 3.288 3.863 3.863 0 0 0-1.82-.218 6.61 6.61 0 0 1 2.483-4.69zm6.844 1.157a3.764 3.764 0 0 0 .64-1.731 6.626 6.626 0 0 1 3.342 5.47 3.895 3.895 0 0 0-1.838-.246 4.816 4.816 0 0 0-2.144-3.493zM808 182.895c1.315 0 2.38 1.06 2.38 2.368a2.375 2.375 0 0 1-2.38 2.368 2.375 2.375 0 0 1-2.381-2.368 2.375 2.375 0 0 1 2.38-2.368zm5.714 9.473a2.375 2.375 0 0 1 2.381 2.369 2.375 2.375 0 0 1-2.38 2.368 2.375 2.375 0 0 1-2.382-2.368 2.375 2.375 0 0 1 2.381-2.369zm-11.429 0a2.375 2.375 0 0 1 2.382 2.369 2.375 2.375 0 0 1-2.382 2.368 2.375 2.375 0 0 1-2.38-2.368 2.375 2.375 0 0 1 2.38-2.369z"/><path id="56q9b" d="M818.933 173.04c.402.526.63 1.043.899 1.427L824 178.64v22.326c0 1.666-1.418 3.036-3.14 3.036h-25.72c-1.722 0-3.14-1.37-3.14-3.036v-22.322l4.168-4.173c.268-.385.497-.901.898-1.428.402-.526 1.156-1.072 2.075-1.072l17.718-.004c.92 0 1.673.547 2.074 1.073zm-20.257 1.152c-.208.272-.452.792-.848 1.36l-2.965 2.447c.093-.009.182-.027.277-.027H807v-4.064h2v4.064h11.86c.094 0 .184.018.277.027l-2.965-2.448c-.396-.567-.644-1.087-.852-1.36-.207-.267-.193-.286-.46-.286h-17.72c-.268 0-.257.015-.464.287zM794 181.05v5.514h-.004v14.346c0 .63.493 1.11 1.144 1.11h25.72c.651 0 1.144-.48 1.144-1.11v-14.346H822v-5.514c-.01-.62-.496-1.092-1.14-1.092h-25.72c-.645 0-1.13.471-1.14 1.092z"/></defs><g><g transform="translate(-792 -172)"><g><use fill="#f613d1" xlink:href="#56q9a"/></g><g><use fill="#7e3dd4" xlink:href="#56q9b"/></g></g></g></svg>