<svg xmlns="http://www.w3.org/2000/svg" xmlns:xlink="http://www.w3.org/1999/xlink" width="32" height="31" viewBox="0 0 32 31"><defs><path id="7ptga" d="M1046 192c-3.164 0-4-3.271-4-5v-9c0-3.955 3.27-5 5-5h15c3.955 0 5 3.27 5 5v2h2c3.955 0 5 3.27 5 5v10c0 3.955-3.271 5-5 5v3a.999.999 0 0 1-1.625.78l-4.726-3.78h-8.65c-3.163 0-5-3.271-5-5v-3zm19-13.995c-.006-.502-.177-3.005-3-3.005h-14.994c-.502.006-3.006.177-3.006 3v8.997c0 .122.04 3.003 2 3.003h3v-5c0-3.955 3.27-5 5-5h11zm3.995 19.995c.502-.006 3.005-.177 3.005-3v-9.995c-.006-.502-.177-3.005-3-3.005h-14.994c-.502.006-3.006.177-3.006 3v9.997c0 .122 1.04 3.003 3 3.003h9c.227 0 .447.077.625.219l3.375 2.7v-1.92a1 1 0 0 1 1-.999z"/><path id="7ptgb" d="M1066.022 189.014c.54 0 .978.428.978.956a.967.967 0 0 1-.978.955h-6.708l2.51 2.453a.94.94 0 0 1 0 1.35.994.994 0 0 1-1.382 0l-4.148-4.052a.94.94 0 0 1 0-1.35l4.148-4.054a.994.994 0 0 1 1.383 0 .94.94 0 0 1 0 1.351l-2.448 2.391z"/></defs><g><g transform="translate(-1042 -173)"><g><use fill="#7e3dd4" xlink:href="#7ptga"/></g><g><use fill="#f616d2" xlink:href="#7ptgb"/></g></g></g></svg>