<svg xmlns="http://www.w3.org/2000/svg" xmlns:xlink="http://www.w3.org/1999/xlink" width="32" height="32" viewBox="0 0 32 32"><defs><path id="5h5ga" d="M887.58 927.753c-.258 0-.516-.086-.688-.301l-1.926-2.143v4.563c.01.057.034.108.034.167a.997.997 0 1 1-1.994.028h-.02v-4.801l-1.925 2.143c-.344.387-.947.387-1.334.043-.387-.345-.387-.947-.043-1.335l3.604-3.865c.344-.388 1.033-.388 1.377 0l3.604 3.908c.344.388.344.99-.043 1.335a.95.95 0 0 1-.645.258zm6.675 13.8c0-.255.086-.51.3-.68l2.128-1.907h-4.532c-.056.01-.107.034-.166.034a.991.991 0 0 1-.993-.99c0-.537.43-.969.966-.984v-.018h4.768l-2.129-1.907c-.384-.34-.384-.936-.042-1.32.342-.383.94-.383 1.325-.042l3.839 3.567c.385.34.385 1.022 0 1.362l-3.881 3.567c-.385.34-.984.34-1.326-.042a.937.937 0 0 1-.257-.64zm-13.825 6.702c.256 0 .511.086.682.3l1.906 2.128v-4.532c-.01-.056-.034-.107-.034-.166 0-.548.444-.993.99-.993.537 0 .969.431.984.966h.019v4.768l1.906-2.128c.34-.385.937-.385 1.32-.043s.383.94.043 1.325l-3.567 3.839c-.341.385-1.022.385-1.363 0l-3.567-3.881c-.34-.385-.34-.984.042-1.326a.937.937 0 0 1 .64-.257zm-6.696-13.825c0 .256-.086.511-.3.682l-2.128 1.906h4.532c.056-.01.107-.033.165-.033.55 0 .994.443.994.99 0 .536-.43.968-.966.983v.019h-4.768l2.128 1.906c.385.34.385.937.043 1.32s-.94.383-1.325.043l-3.839-3.567c-.385-.34-.385-1.022 0-1.363l3.881-3.567c.385-.34.984-.34 1.326.043.171.17.256.425.256.638z"/><path id="5h5gb" d="M884 933a5 5 0 1 1 0 10 5 5 0 0 1 0-10zm-3 5a3 3 0 1 0 6 0 3 3 0 0 0-6 0z"/></defs><g><g transform="translate(-868 -922)"><g><use fill="#773bba" xlink:href="#5h5ga"/></g><g><use fill="#f726d5" xlink:href="#5h5gb"/></g></g></g></svg>