<svg xmlns="http://www.w3.org/2000/svg" xmlns:xlink="http://www.w3.org/1999/xlink" width="32" height="32" viewBox="0 0 32 32"><defs><path id="z4wca" d="M1386.377 447.691a.997.997 0 0 1 0 1.405l-2.345 2.345c-3.408 3.408-8.959 3.408-12.366 0l-1.069-1.068c-3.408-3.408-3.408-8.959 0-12.366l3.757-3.757c3.407-3.407 8.958-3.407 12.366 0l2.473 2.474a.997.997 0 0 1 0 1.405.997.997 0 0 1-1.405 0l-2.474-2.474a6.764 6.764 0 0 0-9.555 0l-3.757 3.757a6.764 6.764 0 0 0 0 9.556l1.069 1.068a6.764 6.764 0 0 0 9.556 0l2.344-2.345a.997.997 0 0 1 1.406 0zm10.037-23.136l1.069 1.069c3.408 3.408 3.408 8.958 0 12.366l-3.66 3.66c-3.407 3.407-8.958 3.407-12.365 0l-2.474-2.475a.997.997 0 0 1 0-1.405.997.997 0 0 1 1.405 0l2.474 2.474a6.764 6.764 0 0 0 9.556 0l3.659-3.66a6.764 6.764 0 0 0 0-9.555l-1.069-1.068a6.764 6.764 0 0 0-9.555 0l-2.254 2.254a.997.997 0 0 1-1.406 0 .997.997 0 0 1 0-1.406l2.254-2.254c3.408-3.407 8.959-3.407 12.366 0z"/></defs><g><g transform="translate(-1368 -422)"><g><use fill="#773bba" xlink:href="#z4wca"/></g></g></g></svg>