<svg xmlns="http://www.w3.org/2000/svg" xmlns:xlink="http://www.w3.org/1999/xlink" width="32" height="32" viewBox="0 0 32 32"><defs><path id="ppfja" d="M1145 436a1 1 0 0 1-1-1c0-.006.003-.011.003-.017v-2.967h-23.988v13.79c0 .65.58 1.183 1.251 1.183H1123v.01a1 1 0 0 1 0 2h-1.734c-1.8 0-3.266-1.419-3.266-3.164v-18.66c0-1.744 1.465-3.164 3.266-3.164h3.738v-1.183c0-.532.458-.976 1.008-.976.549 0 1.007.444 1.007.976v1.183h9.992v-1.183c0-.532.458-.976 1.008-.976s1.007.444 1.007.976v1.183h3.708c1.8 0 3.266 1.42 3.266 3.135V435a1 1 0 0 1-1 1zm-.997-8.806c0-.65-.58-1.182-1.251-1.182h-3.756v1.182c0 .533-.458.976-1.008.976s-1.007-.443-1.007-.976v-1.182h-9.993v1.182c0 .533-.457.976-1.007.976-.55 0-1.007-.443-1.007-.976v-1.182h-3.708c-.702 0-1.251.532-1.251 1.182v2.778h23.988z"/><path id="ppfjb" d="M1126.106 450.913v-9.843c.06-.12.12-.24.18-.3v-.06l.06-.06c.12-.06.18-.12.3-.18l11.01-5.342c.24-.12.54-.12.781 0l11.043 5.462c.301.12.542.48.542.84s-.18.66-.542.84l-3.494 1.8v5.763c0 2.4-3.34 4.201-7.91 4.201-4.568 0-7.995-1.8-7.995-4.201v-5.805l-2.112-1.158v8.043c0 .54-.42.96-.962.96a.949.949 0 0 1-.962-.96zm11.49-3.361l-5.651-2.64v4.92c0 .901 2.344 2.282 6.071 2.282 3.728 0 5.986-1.32 5.986-2.281v-4.922l-5.565 2.641c-.12.06-.3.06-.42.06s-.241 0-.421-.06zm.42-1.92l9.13-4.262-9.13-4.322-8.784 4.322z"/></defs><g><g transform="translate(-1118 -422)"><g><use fill="#773bba" xlink:href="#ppfja"/></g><g><use fill="#f613d1" xlink:href="#ppfjb"/></g></g></g></svg>