<svg xmlns="http://www.w3.org/2000/svg" xmlns:xlink="http://www.w3.org/1999/xlink" width="30" height="31" viewBox="0 0 30 31"><defs><path id="ebgpa" d="M1634 204s-5.98 0-5.98-5.998h-6.06a.971.971 0 0 1-.974-.97c0-.535.435-1.02.973-1.02h2.062l2-7.514c.978-4.206 2.69-7.92 6.97-8.454v-4.105c0-.536.436-.97.974-.97s1.024.434 1.024.97v4.084c4.352.46 5.992 4.206 7 8.475l2 7.514h2.055c.538 0 .973.485.973 1.02 0 .536-.435.97-.973.97h-6.022C1640.022 204 1634 204 1634 204zm-7.982-8.011h15.975l-2-7.491v-.002c-1.004-3.696-2.299-6.581-5.948-6.581-3.649 0-5.025 3.039-6.027 6.583zm7.982 6.01s3.986 0 3.986-3.997h-7.994C1629.992 202 1634 202 1634 202z"/><path id="ebgpb" d="M1645.517 185.002c-1.133-3.581-2.656-6.784-5.512-8.131"/><path id="ebgpc" d="M1648.015 181.005c-1.176-2.944-2.612-5.594-4.813-7.006"/><path id="ebgpd" d="M1622.503 185.019c1.13-3.582 2.647-6.786 5.494-8.133"/><path id="ebgpe" d="M1620.013 181.02c1.172-2.944 2.603-5.594 4.797-7.006"/></defs><g><g transform="translate(-1619 -173)"><g><use fill="#773bba" xlink:href="#ebgpa"/></g><g><use fill="#fff" fill-opacity="0" stroke="#f613d1" stroke-linecap="round" stroke-miterlimit="50" stroke-width="2" xlink:href="#ebgpb"/></g><g><use fill="#fff" fill-opacity="0" stroke="#f613d1" stroke-linecap="round" stroke-miterlimit="50" stroke-width="2" xlink:href="#ebgpc"/></g><g><use fill="#fff" fill-opacity="0" stroke="#f613d1" stroke-linecap="round" stroke-miterlimit="50" stroke-width="2" xlink:href="#ebgpd"/></g><g><use fill="#fff" fill-opacity="0" stroke="#f613d1" stroke-linecap="round" stroke-miterlimit="50" stroke-width="2" xlink:href="#ebgpe"/></g></g></g></svg>