<svg xmlns="http://www.w3.org/2000/svg" xmlns:xlink="http://www.w3.org/1999/xlink" width="32" height="32" viewBox="0 0 32 32"><defs><path id="74l3a" d="M1056 927h6a1 1 0 1 1 0 2h-6a1 1 0 1 1 0-2zm9.88 26h-13.345c-1.397 0-2.534-1.167-2.534-2.602V948l1.98.022v2.13c0 .479.379.868.845.868h11.198v-8.005h7.998V923.87a.857.857 0 0 0-.845-.867l-18.351.022a.857.857 0 0 0-.845.867v12.13L1050 936v-12.398c0-1.435 1.136-2.602 2.534-2.602h18.932c1.398 0 2.535 1.167 2.535 2.602v21.114zm-9.88-22h12a1 1 0 1 1 0 2h-12a1 1 0 1 1 0-2z"/><path id="74l3b" d="M1042 939a3 3 0 0 1 3-3h14a3 3 0 0 1 3 3v6a3 3 0 0 1-3 3h-14a3 3 0 0 1-3-3z"/><path id="74l3c" d="M1044.005 944.97v-5.956h1.664c.512 0 .966.109 1.36.326.394.218.645.528.86.93.214.4.323 1 .326 1.52v.361c0 .534-.108 1.162-.322 1.564-.215.402-.468.71-.866.925-.398.215-.862.325-1.39.33zm.99-4.96v3.984h.322c.599 0 1.1-.119 1.434-.477.333-.357.436-.722.436-1.383v-.33c0-.644-.094-.895-.408-1.251-.314-.357-.796-.538-1.373-.543zm9.004 2.153c0 .555-.101 1.2-.304 1.612a2.178 2.178 0 0 1-.864.947c-.373.217-.808.326-1.305.326-.485 0-.916-.11-1.291-.328a2.233 2.233 0 0 1-.874-.937c-.208-.405-.315-1.036-.32-1.57v-.407c0-.545.103-1.105.309-1.523.206-.417.498-.736.874-.958a2.505 2.505 0 0 1 1.294-.332c.494 0 .93.11 1.306.329.377.219.667.536.87.952.204.416.305.98.305 1.532zm-.99-.365c0-.671-.093-.905-.387-1.263-.293-.36-.576-.539-1.104-.539-.514 0-.847.18-1.142.539-.295.358-.381.575-.39 1.212v.416c0 .65.106.943.403 1.315.298.372.615.558 1.137.558.526 0 .793-.176 1.081-.527.288-.35.393-.636.401-1.292zm6.548 1.421c-.073.599-.303 1.016-.69 1.341-.388.325-.962.488-1.604.488-.696 0-1.195-.24-1.615-.719-.42-.48-.63-1.281-.63-2.084v-.544c0-.526.099-1.07.294-1.468.196-.4.473-.705.832-.92a2.18 2.18 0 0 1 1.188-.32c.626 0 1.187.168 1.565.503.378.336.598.904.66 1.497h-1.035c-.068-.452-.113-.562-.338-.765-.226-.202-.447-.304-.852-.304-.497 0-.771.177-1.053.53-.282.352-.305.613-.305 1.264v.548c0 .615.016.957.283 1.32.267.363.526.544 1.006.544.432 0 .67-.094.9-.282.231-.187.283-.162.359-.629z"/></defs><g><g transform="translate(-1042 -921)"><g><use fill="#7e3dd4" xlink:href="#74l3a"/></g><g><use fill="#f613d1" xlink:href="#74l3b"/></g><g><use fill="#fff" xlink:href="#74l3c"/></g></g></g></svg>