<svg xmlns="http://www.w3.org/2000/svg" xmlns:xlink="http://www.w3.org/1999/xlink" width="32" height="32" viewBox="0 0 32 32"><defs><path id="bgqja" d="M805 932a1 1 0 0 0 1 1h9a1 1 0 0 0 0-2h-9a1 1 0 0 0-1 1zm0-4a1 1 0 0 0 1 1h12a1 1 0 1 0 0-2h-12a1 1 0 0 0-1 1zm19.002 16.716v-21.114c0-1.435-1.137-2.602-2.535-2.602h-18.931c-1.399 0-2.535 1.167-2.535 2.602V936l1.98.022v-12.13c0-.478.379-.867.845-.867l18.35-.022c.467 0 .846.389.846.867v19.145h-7.998v8.005h-11.198a.857.857 0 0 1-.845-.867v-2.13L800 948v2.398c0 1.435 1.137 2.603 2.535 2.603h13.345z"/><path id="bgqjb" d="M792 939a3 3 0 0 1 3-3h14a3 3 0 0 1 3 3v6a3 3 0 0 1-3 3h-14a3 3 0 0 1-3-3z"/><path id="bgqjc" d="M795.083 942.677v2.052h-1.286v-5.658h2.453c.737 0 1.317.166 1.74.497.423.332.634.768.634 1.31s-.211.977-.634 1.306c-.423.329-1.003.493-1.74.493zm0-.874h1.167c.359 0 .63-.086.815-.258a.86.86 0 0 0 .278-.66.898.898 0 0 0-.276-.673c-.183-.178-.456-.267-.817-.267h-1.167zm4.642 2.926v-5.658h2.238c.784 0 1.43.22 1.938.662.508.442.762 1.009.762 1.7v.937c0 .695-.254 1.262-.762 1.7-.508.44-1.154.66-1.938.66zm1.287-4.784v3.914h.951c.423 0 .763-.14 1.022-.418.258-.278.388-.635.388-1.07v-.945c0-.433-.13-.788-.388-1.065-.259-.277-.599-.416-1.022-.416zm8.61 2.083h-2.462v2.701h-1.286v-5.658h4.198v.874h-2.912v1.208h2.463z"/></defs><g><g transform="translate(-792 -921)"><g><use fill="#7e3dd4" xlink:href="#bgqja"/></g><g><use fill="#f613d1" xlink:href="#bgqjb"/></g><g><use fill="#fff" xlink:href="#bgqjc"/></g></g></g></svg>