<svg xmlns="http://www.w3.org/2000/svg" xmlns:xlink="http://www.w3.org/1999/xlink" width="32" height="32" viewBox="0 0 32 32"><defs><path id="8lqwa" d="M1555 932a1 1 0 0 0 1 1h9a1 1 0 0 0 0-2h-9a1 1 0 0 0-1 1zm0-4a1 1 0 0 0 1 1h12a1 1 0 1 0 0-2h-12a1 1 0 0 0-1 1zm19.002 16.716v-21.114c0-1.435-1.137-2.602-2.535-2.602h-18.932c-1.398 0-2.534 1.167-2.534 2.602V936l1.98.022v-12.13c0-.478.379-.867.845-.867l18.35-.022c.467 0 .846.389.846.867v19.145h-7.998v8.005h-11.198a.857.857 0 0 1-.845-.867v-2.13L1550 948v2.398c0 1.435 1.137 2.603 2.534 2.603h13.346z"/><path id="8lqwb" d="M1542 939a3 3 0 0 1 3-3h14a3 3 0 0 1 3 3v6a3 3 0 0 1-3 3h-14a3 3 0 0 1-3-3z"/><path id="8lqwc" d="M1545.204 942.677v2.052h-1.286v-5.658h2.453c.737 0 1.317.166 1.74.497.423.332.634.768.634 1.31s-.21.977-.634 1.306c-.423.329-1.003.493-1.74.493zm0-.874h1.167c.359 0 .63-.086.815-.258a.86.86 0 0 0 .278-.66.898.898 0 0 0-.276-.673c-.183-.178-.455-.267-.817-.267h-1.167zm5.929.874v2.052h-1.287v-5.658h2.454c.737 0 1.317.166 1.74.497.423.332.634.768.634 1.31s-.211.977-.634 1.306c-.423.329-1.003.493-1.74.493zm0-.874h1.167c.358 0 .63-.086.815-.258a.86.86 0 0 0 .277-.66.898.898 0 0 0-.275-.673c-.184-.178-.456-.267-.817-.267h-1.167zm8.932-1.858h-1.832v4.784h-1.286v-4.784h-1.806v-.874h4.924z"/></defs><g><g transform="translate(-1542 -921)"><g><use fill="#7e3dd4" xlink:href="#8lqwa"/></g><g><use fill="#f613d1" xlink:href="#8lqwb"/></g><g><use fill="#fff" xlink:href="#8lqwc"/></g></g></g></svg>