<svg xmlns="http://www.w3.org/2000/svg" xmlns:xlink="http://www.w3.org/1999/xlink" width="32" height="32" viewBox="0 0 32 32"><defs><path id="dh9ua" d="M1306 926h12a1 1 0 0 1 1 1v5a1 1 0 0 1-1.008 1h-5.984a1.07 1.07 0 0 1-.016 0h-5.984a1.07 1.07 0 0 1-.215-.021 1 1 0 0 1-.793-.999v-4.96-.02a1 1 0 0 1 1-1zm1 2v3h4v-3zm10 3v-3h-4v3zm-1.12 22h-13.344c-1.398 0-2.536-1.167-2.536-2.602V948l1.98.022v2.13c0 .479.38.868.846.868h11.198v-8.005h7.998V923.87a.857.857 0 0 0-.845-.867l-18.351.022a.857.857 0 0 0-.845.867v12.13L1300 936v-12.398c0-1.435 1.136-2.602 2.535-2.602h18.931c1.398 0 2.535 1.167 2.535 2.602v21.114z"/><path id="dh9ub" d="M1292 939a3 3 0 0 1 3-3h14a3 3 0 0 1 3 3v6a3 3 0 0 1-3 3h-14a3 3 0 0 1-3-3z"/><path id="dh9uc" d="M1296.448 941.076l1.203-2.005h1.497l-1.902 2.806 2.012 2.852h-1.554l-1.238-2.04-1.238 2.04h-1.502l1.952-2.852-1.903-2.806h1.488zm4.757 2.783h2.872v.87h-4.158v-5.658h1.286zm7.07-.606a.63.63 0 0 0-.258-.525c-.172-.132-.473-.257-.905-.373-.74-.197-1.302-.429-1.685-.696a1.262 1.262 0 0 1-.575-1.092c0-.464.216-.843.648-1.137.432-.294.982-.44 1.652-.44.71 0 1.282.157 1.715.473.433.317.643.731.628 1.244l-.009.023h-1.246c0-.282-.097-.5-.291-.65-.194-.152-.466-.228-.815-.228-.317 0-.562.067-.736.202a.627.627 0 0 0-.26.517c0 .192.094.35.282.472.188.123.513.253.974.39.705.177 1.242.407 1.612.69.37.284.555.658.555 1.122 0 .484-.214.866-.643 1.146-.429.28-.996.42-1.7.42-.69 0-1.283-.152-1.778-.455-.494-.303-.735-.755-.72-1.356l.009-.023h1.247c0 .334.111.58.334.738.223.158.526.237.908.237.343 0 .605-.063.786-.19a.593.593 0 0 0 .27-.51z"/></defs><g><g transform="translate(-1292 -921)"><g><use fill="#7e3dd4" xlink:href="#dh9ua"/></g><g><use fill="#f613d1" xlink:href="#dh9ub"/></g><g><use fill="#fff" xlink:href="#dh9uc"/></g></g></g></svg>